<svg preserveAspectRatio="none" overflow="visible" style="display: block;" width="36.0174" height="38.1926" viewBox="0 0 36.0174 38.1926" fill="none" xmlns="http://www.w3.org/2000/svg">
<g id="Group 1000005837">
<path id="Vector (Stroke)" fill-rule="evenodd" clip-rule="evenodd" d="M18.0088 3.09668C14.5195 3.09668 11.6909 5.92533 11.6909 9.41463C11.6909 12.9039 14.5195 15.7326 18.0088 15.7326C21.4982 15.7326 24.3268 12.9039 24.3268 9.41463C24.3268 5.92533 21.4982 3.09668 18.0088 3.09668ZM8.59417 9.41463C8.59417 4.21507 12.8093 0 18.0088 0C23.2084 0 27.4235 4.21507 27.4235 9.41463C27.4235 14.6142 23.2084 18.8293 18.0088 18.8293C12.8093 18.8293 8.59417 14.6142 8.59417 9.41463Z" fill="#6D758F"/>
<path id="Vector (Stroke)_2" fill-rule="evenodd" clip-rule="evenodd" d="M6.19815 25.2029C9.02765 23.5139 12.8559 22.3889 18.0088 22.3889C23.1616 22.3889 26.9898 23.5139 29.8193 25.2029C32.6501 26.8926 34.3908 29.0928 35.4513 31.1007L35.4513 31.1008C36.4003 32.8979 36.0898 34.7624 35.0127 36.1151C33.9766 37.4161 32.2902 38.1926 30.4799 38.1926H5.53761C3.72728 38.1926 2.04087 37.4161 1.0048 36.1151C-0.0723579 34.7624 -0.382828 32.8978 0.566284 31.1008C1.62674 29.0928 3.36743 26.8926 6.19815 25.2029ZM7.78535 27.8619C5.51561 29.2168 4.14272 30.9599 3.30454 32.5469L3.30453 32.5469C2.96293 33.1937 3.0716 33.7394 3.42724 34.186C3.82397 34.6842 4.58402 35.096 5.53761 35.096H30.4799C31.4334 35.096 32.1935 34.6842 32.5902 34.186C32.9459 33.7394 33.0546 33.1937 32.7131 32.547C31.8748 30.9599 30.5019 29.2168 28.2321 27.8619C25.9612 26.5063 22.7021 25.4856 18.0088 25.4856C13.3154 25.4856 10.0563 26.5063 7.78535 27.8619Z" fill="#6D758F"/>
</g>
</svg>
